<svg width="130" height="87" viewBox="0 0 130 87" fill="none" xmlns="http://www.w3.org/2000/svg">
<path d="M95.9957 43.5834C93.4517 45.7899 90.1319 47.125 86.5 47.125C78.4919 47.125 72 40.633 72 32.625C72 24.6169 78.4919 18.125 86.5 18.125C93.9436 18.125 100.077 23.7337 100.905 30.9554C102.198 37.5173 102.182 45.3357 99.2223 52.3428C96.0983 59.7389 89.7951 65.9688 79.0323 68.7862C77.5797 69.1668 76.0939 68.2975 75.7136 66.8446C75.3334 65.3921 76.2026 63.9066 77.6552 63.5263C86.8299 61.1244 91.7642 56.0258 94.2136 50.2269C95.1076 48.1099 95.6836 45.866 95.9957 43.5834Z" fill="#FF1D99"/>
<path d="M52.9957 43.5834C50.4517 45.7899 47.1319 47.125 43.5 47.125C35.4919 47.125 29 40.633 29 32.625C29 24.6169 35.4919 18.125 43.5 18.125C50.9436 18.125 57.0771 23.7337 57.905 30.9554C59.1977 37.5173 59.1821 45.3357 56.2223 52.3428C53.0983 59.7389 46.7951 65.9688 36.0323 68.7862C34.5797 69.1668 33.0939 68.2975 32.7136 66.8446C32.3334 65.3921 33.2026 63.9066 34.6552 63.5263C43.8299 61.1244 48.7642 56.0258 51.2136 50.2269C52.1076 48.1099 52.6836 45.866 52.9957 43.5834Z" fill="#FF1D99"/>
</svg>
