<svg width="76" height="76" viewBox="0 0 76 76" fill="none" xmlns="http://www.w3.org/2000/svg">
<path d="M38 65.1509C52.972 65.1509 65.1508 52.9704 65.1508 37.9991C65.1508 23.0279 52.972 10.8492 38 10.8492C23.0287 10.8492 10.8491 23.0279 10.8491 37.9991C10.8491 52.9704 23.0286 65.1509 38 65.1509ZM38 15.1319C50.6099 15.1319 60.8683 25.3901 60.8683 37.9993C60.8683 50.6099 50.6099 60.8683 38 60.8683C25.3901 60.8683 15.1317 50.6099 15.1317 37.9993C15.1317 25.3901 25.3901 15.1319 38 15.1319Z" fill="#FFC64A"/>
<path d="M42.2934 43.3204C42.2934 45.0381 39.7811 45.3314 37.6019 45.3314C35.548 45.3314 32.7415 44.3688 30.3948 43.1522L29.9349 47.8866C31.1085 48.5576 33.831 49.3538 36.5964 49.5202L35.9262 54.3386H40.4091L39.7381 49.5202C45.5192 48.9763 47.405 45.6249 47.405 42.8176C47.405 35.7376 34.2092 37.2443 34.2092 32.889C34.2092 31.2536 35.758 30.6685 38.482 30.6685C42.168 30.6685 44.9341 31.9658 46.3575 33.3076L47.0704 27.9864C45.7285 27.1902 43.0069 26.4781 39.7381 26.3099L40.4091 21.6595H35.9262L36.5964 26.3527C29.8095 26.9396 28.5947 30.5431 28.5947 32.9301C28.5946 41.3505 42.2934 39.2569 42.2934 43.3204Z" fill="#FFC64A"/>
</svg>
