<svg width="43" height="44" viewBox="0 0 43 44" fill="none" xmlns="http://www.w3.org/2000/svg">
<g clip-path="url(#clip0_45_4689)">
<path d="M42.4 21.9788C42.4 10.2704 32.9084 0.778809 21.2 0.778809C9.49156 0.778809 0 10.2704 0 21.9788C0 32.5603 7.75257 41.3308 17.8875 42.9213V28.1069H12.5047V21.9788H17.8875V17.3082C17.8875 11.9949 21.0525 9.06006 25.8951 9.06006C28.2146 9.06006 30.6406 9.47412 30.6406 9.47412V14.6913H27.9674C25.3338 14.6913 24.5125 16.3254 24.5125 18.002V21.9788H30.3922L29.4523 28.1069H24.5125V42.9213C34.6475 41.3308 42.4 32.5603 42.4 21.9788Z" fill="#6F6F6F"/>
</g>
<defs>
<clipPath id="clip0_45_4689">
<rect width="42.4" height="42.4" fill="white" transform="translate(0 0.650391)"/>
</clipPath>
</defs>
</svg>
