<svg width="64" height="64" viewBox="0 0 64 64" fill="none" xmlns="http://www.w3.org/2000/svg">
<path d="M62.2327 12.8453C61.9662 12.2974 61.5599 11.8296 61.0549 11.4888C60.5499 11.1479 59.964 10.9463 59.3562 10.9041L56.354 10.6283L61.6365 5.29828C61.9726 4.95388 62.159 4.49065 62.1551 4.00946C62.1511 3.52828 61.9573 3.06812 61.6157 2.72923C61.274 2.39033 60.8124 2.20013 60.3312 2.20007C59.85 2.20001 59.3882 2.39008 59.0465 2.72888L53.7356 8.08738L53.4519 4.99988C53.4098 4.39245 53.2083 3.80684 52.8679 3.30201C52.5275 2.79718 52.0601 2.39094 51.5127 2.12418C50.8992 1.84112 50.2134 1.7538 49.5486 1.87411C48.8837 1.99441 48.272 2.31649 47.7966 2.79658L43.8611 6.73308C43.6714 6.92282 43.5258 7.15197 43.4345 7.40429C43.3433 7.6566 43.3087 7.9259 43.3332 8.19308L44.0188 15.6484C44.0776 16.287 43.9957 16.9308 43.7791 17.5344C43.5624 18.138 43.2161 18.6868 42.7646 19.1423L29.02 33.0062C28.8506 33.1769 28.7164 33.3793 28.6252 33.6019C28.534 33.8245 28.4876 34.0628 28.4886 34.3034C28.4895 34.5439 28.5379 34.7819 28.6309 35.0037C28.7239 35.2255 28.8597 35.4269 29.0305 35.5962C29.1991 35.7642 29.3996 35.8969 29.6201 35.9866C29.8407 36.0762 30.0769 36.121 30.3149 36.1183C30.5552 36.1191 30.7933 36.0725 31.0155 35.9812C31.2378 35.8898 31.4398 35.7555 31.61 35.5859L45.4343 21.6422C45.8903 21.1823 46.4423 20.829 47.0509 20.6075C47.6594 20.386 48.3094 20.3018 48.9543 20.361L56.1635 21.0236C56.2197 21.0287 56.2759 21.0313 56.3308 21.0313C56.5708 21.0313 56.8085 20.984 57.0302 20.8921C57.2519 20.8003 57.4534 20.6656 57.623 20.4958L61.56 16.5599C62.0401 16.0848 62.3622 15.4734 62.4826 14.8087C62.603 14.1441 62.5157 13.4586 62.2327 12.8453ZM55.645 17.3053L47.775 16.5822L47.0509 8.71218L49.8639 5.89868L50.4484 12.2555C50.4874 12.6806 50.674 13.0787 50.9758 13.3805C51.2776 13.6824 51.6756 13.8691 52.1007 13.9082L58.4567 14.4927L55.645 17.3053Z" fill="#0074E0" fill-opacity="0.5"/>
<path d="M33.875 24.5581C31.6446 23.7376 29.2006 23.7049 26.9491 24.4655C24.6975 25.226 22.7739 26.7339 21.4978 28.7387C20.2217 30.7436 19.6699 33.1247 19.9341 35.4865C20.1983 37.8483 21.2625 40.0486 22.95 41.722C24.6375 43.3953 26.8468 44.441 29.2107 44.6852C31.5747 44.9295 33.951 44.3576 35.945 43.0647C37.9391 41.7717 39.4307 39.8355 40.1722 37.5776C40.9137 35.3197 40.8604 32.8761 40.0212 30.6527L33.3777 37.3537C32.5671 38.1636 31.4683 38.6189 30.3224 38.6199C29.1766 38.6209 28.0771 38.1673 27.2651 37.3588C26.4531 36.5502 25.9949 35.4526 25.9911 34.3067C25.9872 33.1609 26.4379 32.0602 27.2444 31.2462L33.875 24.5581Z" fill="#0074E0" fill-opacity="0.5"/>
<path d="M55.9353 23.5132L48.7258 22.8507C48.668 22.8453 48.6101 22.8427 48.5525 22.8427C48.0484 22.8441 47.5655 23.0455 47.2097 23.4027L45.6506 24.9752C47.9386 28.733 48.772 33.1983 47.9938 37.5285C47.2155 41.8586 44.8793 45.7542 41.426 48.4802C37.9727 51.2061 33.6411 52.5739 29.2486 52.3254C24.8561 52.077 20.7064 50.2294 17.5825 47.1315C14.4586 44.0335 12.5767 39.8993 12.2917 35.5089C12.0067 31.1186 13.3384 26.7758 16.0355 23.3C18.7327 19.8241 22.6087 17.4556 26.9323 16.6414C31.2558 15.8271 35.7279 16.6234 39.5046 18.8801L40.9892 17.3824C41.1838 17.1864 41.3331 16.95 41.4264 16.69C41.5197 16.43 41.5548 16.1527 41.5292 15.8777L40.844 8.42227C40.8371 8.34687 40.8511 8.27357 40.8479 8.19837C34.8236 5.76936 28.1443 5.50028 21.9441 7.43682C15.7439 9.37335 10.4051 13.3961 6.83419 18.822C3.26326 24.248 1.68035 30.7426 2.35423 37.2031C3.02812 43.6636 5.91727 49.6918 10.5311 54.264C15.1449 58.8361 21.199 61.6705 27.6653 62.2858C34.1317 62.9011 40.6117 61.2594 46.005 57.6395C51.3984 54.0195 55.3726 48.6444 57.2529 42.427C59.1331 36.2095 58.8035 29.5329 56.32 23.5309C56.1938 23.5305 56.0654 23.5251 55.9353 23.5132Z" fill="#0074E0" fill-opacity="0.5"/>
</svg>
