<svg width="54" height="54" viewBox="0 0 54 54" fill="none" xmlns="http://www.w3.org/2000/svg">
<g clip-path="url(#clip0_41_4330)">
<path d="M42.075 31.4999H28.125C24.975 31.4999 22.275 28.7999 22.275 25.6499V11.9249C22.5 10.1249 21.15 8.77488 19.35 8.99988C6.975 10.7999 -2.25 22.4999 0.449996 35.9999C2.025 44.7749 9.225 51.7499 18 53.5499C31.275 56.2499 43.2 47.0249 45 34.6499C45.225 32.8499 43.875 31.4999 42.075 31.4999Z" fill="black"/>
<path d="M54 23.8499C53.325 17.7749 50.625 12.1499 46.125 7.6499C41.85 3.3749 36 0.449902 29.925 -0.225098C28.35 -0.225098 27 1.1249 27 2.6999V24.7499C27 26.0999 28.125 26.9999 29.25 26.9999H51.3C52.875 26.9999 54.225 25.6499 54 23.8499Z" fill="black"/>
</g>
<defs>
<clipPath id="clip0_41_4330">
<rect width="54" height="54" fill="white"/>
</clipPath>
</defs>
</svg>
