<svg width="48" height="48" viewBox="0 0 48 48" fill="none" xmlns="http://www.w3.org/2000/svg">
<path d="M23.7238 14.0493C17.8349 14.0493 12.9555 18.8446 12.9555 24.8176C12.9555 30.7906 17.7507 35.5858 23.7238 35.5858C29.6968 35.5858 34.492 30.7065 34.492 24.8176C34.492 18.9287 29.6126 14.0493 23.7238 14.0493ZM23.7238 31.716C19.938 31.716 16.8253 28.6033 16.8253 24.8176C16.8253 21.0319 19.938 17.9192 23.7238 17.9192C27.5095 17.9192 30.6222 21.0319 30.6222 24.8176C30.6222 28.6033 27.5095 31.716 23.7238 31.716Z" fill="#6F6F6F"/>
<path d="M34.9126 16.2368C36.26 16.2368 37.3523 15.1445 37.3523 13.7971C37.3523 12.4497 36.26 11.3574 34.9126 11.3574C33.5652 11.3574 32.473 12.4497 32.473 13.7971C32.473 15.1445 33.5652 16.2368 34.9126 16.2368Z" fill="#6F6F6F"/>
<path d="M41.2222 7.48778C39.0349 5.21635 35.9222 4.03857 32.3889 4.03857H15.0587C7.73966 4.03857 2.86029 8.91794 2.86029 16.237V33.483C2.86029 37.1005 4.03807 40.2132 6.39362 42.4846C8.66505 44.6719 11.6936 45.7656 15.1428 45.7656H32.3047C35.9222 45.7656 38.9508 44.5878 41.1381 42.4846C43.4095 40.2973 44.5873 37.1846 44.5873 33.5671V16.237C44.5873 12.7037 43.4095 9.67508 41.2222 7.48778ZM40.8857 33.5671C40.8857 36.1751 39.9603 38.2783 38.446 39.7084C36.9317 41.1386 34.8285 41.8957 32.3047 41.8957H15.1428C12.619 41.8957 10.5158 41.1386 9.00156 39.7084C7.48727 38.1941 6.73013 36.091 6.73013 33.483V16.237C6.73013 13.7132 7.48727 11.61 9.00156 10.0957C10.4317 8.66556 12.619 7.90841 15.1428 7.90841H32.473C34.9968 7.90841 37.1 8.66556 38.6143 10.1798C40.0444 11.6941 40.8857 13.7973 40.8857 16.237V33.5671Z" fill="#6F6F6F"/>
</svg>
