<svg width="63" height="63" viewBox="0 0 63 63" fill="none" xmlns="http://www.w3.org/2000/svg">
<path d="M34.3445 9.78519C36.7125 8.31468 39.7814 8.66868 41.7524 10.6397L51.283 20.1703C53.2377 22.125 53.6039 25.1623 52.1698 27.5257L35.0788 55.6896C33.0602 59.016 28.4581 59.5709 25.7068 56.8195L5.34904 36.4618C2.61562 33.7283 3.14244 29.1613 6.4264 27.122L34.3445 9.78519Z" fill="white"/>
<path d="M41.5756 10.8165L51.1062 20.3471C52.9795 22.2204 53.3304 25.1311 51.956 27.396L34.8651 55.5599C32.9306 58.7477 28.5203 59.2795 25.8836 56.6427L5.52582 36.285C2.90629 33.6655 3.41116 29.2887 6.55829 27.3343L34.4764 9.99757C36.7457 8.58833 39.6867 8.92758 41.5756 10.8165Z" stroke="black" stroke-opacity="0.5" stroke-width="0.5"/>
<path d="M36.608 34.176C36.608 35.008 36.392 35.792 35.96 36.528C35.544 37.248 34.92 37.848 34.088 38.328C33.272 38.792 32.304 39.064 31.184 39.144V41.088H29.648V39.12C28.048 38.976 26.76 38.496 25.784 37.68C24.808 36.848 24.304 35.728 24.272 34.32H27.872C27.968 35.472 28.56 36.168 29.648 36.408V31.824C28.496 31.536 27.568 31.248 26.864 30.96C26.16 30.672 25.552 30.208 25.04 29.568C24.528 28.928 24.272 28.056 24.272 26.952C24.272 25.56 24.768 24.424 25.76 23.544C26.768 22.664 28.064 22.16 29.648 22.032V20.088H31.184V22.032C32.72 22.16 33.944 22.624 34.856 23.424C35.784 24.224 36.304 25.328 36.416 26.736H32.792C32.744 26.272 32.576 25.872 32.288 25.536C32.016 25.184 31.648 24.936 31.184 24.792V29.328C32.384 29.632 33.328 29.928 34.016 30.216C34.72 30.488 35.328 30.944 35.84 31.584C36.352 32.208 36.608 33.072 36.608 34.176ZM27.776 26.784C27.776 27.312 27.936 27.744 28.256 28.08C28.576 28.4 29.04 28.664 29.648 28.872V24.72C29.072 24.8 28.616 25.016 28.28 25.368C27.944 25.72 27.776 26.192 27.776 26.784ZM31.184 36.456C31.792 36.344 32.264 36.096 32.6 35.712C32.952 35.328 33.128 34.864 33.128 34.32C33.128 33.792 32.96 33.368 32.624 33.048C32.288 32.728 31.808 32.464 31.184 32.256V36.456Z" fill="black"/>
</svg>
