<svg width="40" height="40" viewBox="0 0 40 40" fill="none" xmlns="http://www.w3.org/2000/svg">
<path d="M38.8954 8.02839C38.7288 7.686 38.4749 7.39356 38.1593 7.18056C37.8437 6.96756 37.4775 6.84152 37.0976 6.81514L35.2213 6.64277L38.5228 3.31152C38.7329 3.09627 38.8493 2.80675 38.8469 2.506C38.8445 2.20526 38.7233 1.91767 38.5098 1.70586C38.2963 1.49405 38.0077 1.37518 37.707 1.37514C37.4062 1.3751 37.1176 1.49389 36.9041 1.70564L33.5847 5.05471L33.4074 3.12502C33.3811 2.74537 33.2552 2.37937 33.0424 2.06385C32.8297 1.74833 32.5375 1.49443 32.1954 1.32771C31.812 1.15079 31.3834 1.09622 30.9679 1.17141C30.5523 1.2466 30.17 1.4479 29.8729 1.74796L27.4132 4.20827C27.2946 4.32685 27.2036 4.47007 27.1466 4.62777C27.0896 4.78547 27.0679 4.95378 27.0832 5.12077L27.5117 9.78033C27.5485 10.1795 27.4973 10.5818 27.3619 10.9591C27.2265 11.3363 27.0101 11.6794 26.7279 11.964L18.1375 20.629C18.0316 20.7356 17.9477 20.8622 17.8907 21.0013C17.8338 21.1404 17.8047 21.2894 17.8053 21.4397C17.8059 21.59 17.8362 21.7388 17.8943 21.8774C17.9524 22.016 18.0373 22.1419 18.1441 22.2477C18.2495 22.3527 18.3747 22.4357 18.5126 22.4917C18.6504 22.5477 18.798 22.5757 18.9468 22.574C19.097 22.5745 19.2458 22.5454 19.3847 22.4883C19.5236 22.4312 19.6499 22.3473 19.7562 22.2413L28.3964 13.5265C28.6814 13.239 29.0264 13.0182 29.4068 12.8798C29.7871 12.7413 30.1934 12.6887 30.5964 12.7257L35.1022 13.1398C35.1373 13.143 35.1724 13.1446 35.2067 13.1446C35.3568 13.1447 35.5053 13.1151 35.6439 13.0577C35.7825 13.0003 35.9084 12.9161 36.0144 12.81L38.475 10.35C38.7751 10.0531 38.9764 9.67095 39.0516 9.25556C39.1268 8.84017 39.0723 8.4117 38.8954 8.02839ZM34.7781 10.8159L29.8594 10.364L29.4068 5.44521L31.1649 3.68677L31.5302 7.65977C31.5546 7.92547 31.6712 8.17425 31.8599 8.36293C32.0485 8.55162 32.2972 8.66829 32.5629 8.69271L36.5354 9.05802L34.7781 10.8159Z" fill="black"/>
<path d="M21.1719 15.3489C19.7779 14.8361 18.2504 14.8157 16.8432 15.291C15.4359 15.7663 14.2337 16.7088 13.4361 17.9618C12.6386 19.2149 12.2937 20.703 12.4588 22.1792C12.6239 23.6553 13.2891 25.0305 14.3438 26.0764C15.3985 27.1222 16.7792 27.7757 18.2567 27.9284C19.7342 28.0811 21.2194 27.7236 22.4656 26.9155C23.7119 26.1074 24.6442 24.8973 25.1076 23.4861C25.5711 22.0749 25.5378 20.5477 25.0133 19.158L20.8611 23.3462C20.3544 23.8524 19.6677 24.137 18.9515 24.1376C18.2353 24.1382 17.5482 23.8547 17.0407 23.3493C16.5332 22.844 16.2468 22.158 16.2444 21.4418C16.242 20.7257 16.5237 20.0377 17.0278 19.529L21.1719 15.3489Z" fill="black"/>
<path d="M34.9596 14.6958L30.4536 14.2817C30.4175 14.2784 30.3813 14.2767 30.3453 14.2767C30.0302 14.2776 29.7284 14.4035 29.5061 14.6267L28.5316 15.6095C29.9616 17.9582 30.4825 20.749 29.9961 23.4553C29.5097 26.1617 28.0496 28.5965 25.8913 30.3002C23.7329 32.0039 21.0257 32.8588 18.2804 32.7035C15.535 32.5482 12.9415 31.3935 10.9891 29.4572C9.03665 27.521 7.86041 24.9371 7.68229 22.1931C7.50417 19.4492 8.3365 16.7349 10.0222 14.5625C11.7079 12.3901 14.1304 10.9098 16.8327 10.4009C19.5349 9.89201 22.3299 10.3897 24.6904 11.8001L25.6182 10.864C25.7399 10.7415 25.8332 10.5938 25.8915 10.4313C25.9498 10.2688 25.9717 10.0955 25.9557 9.9236L25.5275 5.26398C25.5232 5.21685 25.5319 5.17104 25.5299 5.12404C21.7647 3.60591 17.5902 3.43774 13.7151 4.64807C9.83996 5.8584 6.5032 8.37264 4.27136 11.7638C2.03953 15.155 1.05021 19.2142 1.47139 23.252C1.89257 27.2898 3.69829 31.0574 6.58192 33.915C9.46556 36.7726 13.2494 38.5441 17.2908 38.9287C21.3323 39.3133 25.3823 38.2872 28.7531 36.0247C32.124 33.7623 34.6079 30.4028 35.783 26.5169C36.9582 22.631 36.7522 18.4581 35.2 14.7069C35.1211 14.7066 35.0409 14.7032 34.9596 14.6958Z" fill="black"/>
</svg>
