<svg width="32" height="32" viewBox="0 0 32 32" fill="none" xmlns="http://www.w3.org/2000/svg">
<g clip-path="url(#clip0_37_4256)">
<path fill-rule="evenodd" clip-rule="evenodd" d="M30.4167 26.8041C30.4167 28.5879 28.9713 30.0333 27.1875 30.0333H3.93754C2.15375 30.0333 0.708374 28.5879 0.708374 26.8041L0.708374 8.07494C0.708374 6.64829 1.86506 5.4916 3.29171 5.4916H16.3188L21.5494 3.59673C21.8807 3.47596 22.2476 3.6471 22.3683 3.97712L22.9192 5.4916H25.25C26.6767 5.4916 27.8334 6.64829 27.8334 8.07494V9.3666C29.26 9.3666 30.4167 10.5233 30.4167 11.9499V26.8041ZM3.29171 6.78327C2.57871 6.78327 2.00004 7.36194 2.00004 8.07494C2.00004 8.78794 2.57871 9.3666 3.29171 9.3666H5.5166H5.63867C5.64706 9.36337 5.65223 9.35627 5.66062 9.35304L12.7532 6.78327H3.29171ZM22.0712 6.90016L21.3854 5.01175L20.0601 5.4916H20.0621L16.5009 6.78327H16.4945L9.36512 9.3666H22.9677L22.0712 6.90016ZM26.5417 8.07494C26.5417 7.36194 25.963 6.78327 25.25 6.78327H23.3881L24.3271 9.3666H26.5417V8.07494ZM27.8334 10.6583H3.29171C2.81896 10.6583 2.38108 10.522 2.00004 10.2998V26.8041C2.00004 27.8742 2.86804 28.7416 3.93754 28.7416H27.1875C28.2577 28.7416 29.125 27.8742 29.125 26.8041V22.2833H26.5417C25.1151 22.2833 23.9584 21.1266 23.9584 19.6999C23.9584 18.2733 25.1151 17.1166 26.5417 17.1166H29.125V11.9499C29.125 11.2369 28.5464 10.6583 27.8334 10.6583ZM29.125 20.9916V18.4083H26.5417C25.8287 18.4083 25.25 18.9869 25.25 19.6999C25.25 20.4129 25.8287 20.9916 26.5417 20.9916H29.125ZM26.5417 19.0541H27.8334V20.3458H26.5417V19.0541Z" fill="black"/>
</g>
<defs>
<clipPath id="clip0_37_4256">
<rect width="31" height="31" fill="white" transform="translate(0.062561 0.970825)"/>
</clipPath>
</defs>
</svg>
