<svg width="57" height="56" viewBox="0 0 57 56" fill="none" xmlns="http://www.w3.org/2000/svg">
<path d="M52.3129 4.20894C52.2931 4.11288 52.2463 4.02447 52.178 3.95407C52.1097 3.88366 52.0227 3.83418 51.9273 3.81143C45.5662 2.25617 30.8683 7.79842 22.9052 15.7583C21.4849 17.1671 20.1901 18.697 19.0355 20.3307C16.5799 20.1134 14.1243 20.2948 12.0314 21.2071C6.12638 23.8061 4.40712 30.5876 3.92816 33.5048C3.901 33.6644 3.91124 33.8282 3.9581 33.9833C4.00496 34.1383 4.08714 34.2804 4.1982 34.3983C4.30925 34.5162 4.44615 34.6067 4.59811 34.6627C4.75008 34.7188 4.91297 34.7388 5.07397 34.7212L14.5565 33.6753C14.5633 34.3902 14.6064 35.1043 14.6858 35.8149C14.7335 36.3083 14.9525 36.7694 15.3048 37.1182L18.9768 40.7815C19.3259 41.1333 19.7869 41.3523 20.2801 41.4006C20.9867 41.4796 21.6968 41.5227 22.4078 41.5298L21.3673 51.0004C21.3499 51.1613 21.3701 51.3241 21.4262 51.476C21.4823 51.6278 21.5729 51.7646 21.6907 51.8756C21.8085 51.9866 21.9505 52.0688 22.1054 52.1158C22.2604 52.1627 22.4241 52.1731 22.5837 52.1462C25.4955 51.6792 32.2889 49.9599 34.8727 44.0549C35.785 41.9621 35.9718 39.5184 35.7611 37.0747C37.3987 35.92 38.9326 34.6249 40.3454 33.2039C48.3335 25.256 53.8443 10.8861 52.3129 4.20894ZM32.3758 23.7225C31.6464 22.9935 31.1495 22.0646 30.9481 21.0533C30.7467 20.042 30.8497 18.9936 31.2442 18.0408C31.6386 17.088 32.3068 16.2736 33.1642 15.7007C34.0216 15.1277 35.0296 14.8218 36.0608 14.8218C37.092 14.8218 38.1001 15.1277 38.9575 15.7007C39.8148 16.2736 40.483 17.088 40.8775 18.0408C41.272 18.9936 41.375 20.042 41.1736 21.0533C40.9722 22.0646 40.4753 22.9935 39.7459 23.7225C39.2622 24.2069 38.6878 24.5911 38.0555 24.8533C37.4232 25.1155 36.7454 25.2504 36.0608 25.2504C35.3763 25.2504 34.6985 25.1155 34.0662 24.8533C33.4339 24.5911 32.8595 24.2069 32.3758 23.7225Z" fill="#FFC64A"/>
<path d="M18.727 43.4349C18.1319 44.0311 17.1772 44.2636 16.0281 44.4623C13.4465 44.9022 11.1668 42.6714 11.6306 40.0615C11.8076 39.0721 12.3311 37.6852 12.6569 37.3594C12.7282 37.2895 12.7756 37.199 12.7924 37.1007C12.8093 37.0024 12.7947 36.9013 12.7508 36.8117C12.707 36.7221 12.636 36.6487 12.5479 36.6017C12.4599 36.5548 12.3594 36.5368 12.2605 36.5502C10.8169 36.7269 9.4738 37.3814 8.44514 38.4096C5.89177 40.9652 5.65067 50.4477 5.65067 50.4477C5.65067 50.4477 15.1386 50.2066 17.692 47.651C18.7234 46.6232 19.3788 45.2781 19.5525 43.8324C19.5926 43.3784 19.0398 43.108 18.727 43.4349Z" fill="#FFC64A"/>
</svg>
