<svg width="50" height="50" viewBox="0 0 50 50" fill="none" xmlns="http://www.w3.org/2000/svg">
<path d="M30.5831 48.0263C30.009 48.0317 29.4447 47.8771 28.9536 47.5797C28.4625 47.2823 28.064 46.8539 27.8028 46.3426L21.6242 34.6497C21.445 34.2883 21.4143 33.8711 21.5386 33.4874C21.663 33.1036 21.9325 32.7837 22.2896 32.5961C22.6467 32.4085 23.063 32.368 23.4496 32.4833C23.8361 32.5986 24.1623 32.8606 24.3582 33.2132L30.5368 44.9061L45.3036 4.86896L5.14285 19.4349L20.2803 27.5598L33.1318 14.7083C33.4226 14.4175 33.8171 14.2541 34.2285 14.2541C34.6398 14.2541 35.0343 14.4175 35.3252 14.7083C35.616 14.9992 35.7794 15.3937 35.7794 15.805C35.7794 16.2164 35.616 16.6109 35.3252 16.9017L21.6551 30.5564C21.4227 30.7891 21.1221 30.9415 20.797 30.9915C20.472 31.0415 20.1394 30.9865 19.8479 30.8344L3.73722 22.2771C3.17331 22.0132 2.7023 21.585 2.38595 21.0488C2.0696 20.5125 1.92266 19.8932 1.96441 19.2719C2.00616 18.6507 2.23464 18.0566 2.6199 17.5675C3.00517 17.0784 3.52923 16.7171 4.12338 16.531L44.1451 1.8878C44.7112 1.64907 45.3356 1.58454 45.9385 1.70247C46.5415 1.8204 47.0956 2.11543 47.53 2.54985C47.9644 2.98428 48.2595 3.53837 48.3774 4.14132C48.4953 4.74426 48.4308 5.36868 48.192 5.93477L33.5488 45.9565C33.3475 46.5353 32.9786 47.0411 32.489 47.4097C31.9994 47.7783 31.4113 47.9929 30.7994 48.0263H30.5831Z" fill="#0074E0"/>
</svg>
