<svg width="57" height="57" viewBox="0 0 57 57" fill="none" xmlns="http://www.w3.org/2000/svg">
<path d="M32.7193 50.0977H25.9985C25.586 50.0978 25.188 49.9452 24.8813 49.6693C24.5746 49.3935 24.3809 49.0138 24.3374 48.6036L23.8398 43.9178C23.1451 43.6814 22.4664 43.4003 21.8081 43.0762L18.1465 46.0375C17.826 46.2956 17.4215 46.4263 17.0106 46.4046C16.5997 46.3828 16.2113 46.2101 15.9199 45.9195L11.1673 41.1669C10.8768 40.8755 10.7041 40.4871 10.6823 40.0762C10.6605 39.6653 10.7912 39.2608 11.0493 38.9404L14.0118 35.2743C13.6871 34.616 13.4056 33.9374 13.169 33.2426L8.47541 32.7416C8.06539 32.6982 7.68594 32.5046 7.4101 32.1981C7.13427 31.8917 6.98156 31.494 6.98138 31.0817V24.3597C6.98156 23.9474 7.13427 23.5497 7.4101 23.2433C7.68594 22.9368 8.06539 22.7432 8.47541 22.6998L13.1612 22.2022C13.3978 21.5074 13.6793 20.8287 14.004 20.1704L11.0415 16.5044C10.7834 16.1839 10.6527 15.7794 10.6745 15.3685C10.6963 14.9576 10.869 14.5692 11.1595 14.2778L15.9121 9.52524C16.2035 9.2347 16.5919 9.06198 17.0028 9.0402C17.4137 9.01842 17.8182 9.14912 18.1387 9.40723L21.8047 12.3686C22.4631 12.0445 23.1418 11.7633 23.8365 11.5269L24.3341 6.84112C24.3768 6.42973 24.5707 6.04885 24.8782 5.77222C25.1857 5.4956 25.5849 5.34292 25.9985 5.34375H32.7193C33.1318 5.34366 33.5298 5.49624 33.8365 5.7721C34.1432 6.04796 34.3369 6.42757 34.3804 6.83778L34.8769 11.5236C35.5719 11.76 36.251 12.0411 36.9097 12.3652L40.5746 9.40389C40.8951 9.14578 41.2996 9.01508 41.7105 9.03686C42.1214 9.05864 42.5098 9.23136 42.8012 9.5219L47.5538 14.2745C47.8443 14.5659 48.0171 14.9543 48.0388 15.3652C48.0606 15.7761 47.9299 16.1806 47.6718 16.5011L44.7094 20.1671C45.0335 20.8256 45.315 21.5042 45.5521 22.1988L50.2379 22.6965C50.6477 22.7402 51.0269 22.9338 51.3025 23.2403C51.5781 23.5467 51.7307 23.9442 51.7308 24.3564V31.0784C51.7316 31.4904 51.5801 31.8882 51.3053 32.1952C51.0305 32.5022 50.652 32.6968 50.2424 32.7416L45.5566 33.2392C45.3195 33.9339 45.038 34.6125 44.7138 35.271L47.6763 38.937C47.9344 39.2575 48.0651 39.662 48.0433 40.0729C48.0215 40.4838 47.8488 40.8722 47.5583 41.1636L42.8057 45.9195C42.5143 46.2101 42.1259 46.3828 41.715 46.4046C41.3041 46.4263 40.8996 46.2956 40.5791 46.0375L36.9142 43.0762C36.2554 43.4003 35.5764 43.6814 34.8813 43.9178L34.3848 48.6036C34.3413 49.0146 34.1469 49.3948 33.8393 49.6708C33.5316 49.9468 33.1326 50.0989 32.7193 50.0977ZM27.498 46.7578H31.2153L31.6706 42.465C31.7064 42.129 31.8432 41.8117 32.063 41.5551C32.2828 41.2985 32.5754 41.1146 32.9019 41.0278C34.0782 40.7141 35.2073 40.245 36.2596 39.6328C36.5525 39.4621 36.8905 39.3846 37.2286 39.4107C37.5667 39.4367 37.8888 39.5651 38.1521 39.7787L41.5098 42.4917L44.1383 39.8633L41.4207 36.5156C41.2072 36.2523 41.0788 35.9301 41.0528 35.5921C41.0267 35.254 41.1042 34.916 41.2749 34.6231C41.8858 33.5715 42.3534 32.443 42.6654 31.2676C42.7523 30.9409 42.9364 30.6483 43.1932 30.4284C43.45 30.2086 43.7675 30.0718 44.1037 30.0363L48.3954 29.5799V25.8626L44.1037 25.4062C43.7675 25.3707 43.45 25.234 43.1932 25.0141C42.9364 24.7942 42.7523 24.5016 42.6654 24.1749C42.3535 22.9991 41.8859 21.8703 41.2749 20.8184C41.1042 20.5254 41.0267 20.1874 41.0528 19.8493C41.0788 19.5113 41.2072 19.1891 41.4207 18.9258L44.1338 15.5681L41.5054 12.9397L38.1477 15.6527C37.8843 15.8663 37.5622 15.9947 37.2241 16.0207C36.8861 16.0468 36.5481 15.9693 36.2551 15.7986C35.2033 15.1881 34.0749 14.7205 32.8997 14.4081C32.5731 14.3212 32.2806 14.1373 32.0608 13.8807C31.8409 13.6241 31.7041 13.3069 31.6684 12.9708L31.2175 8.6836H27.498L27.0427 12.9764C27.0069 13.3126 26.8699 13.6299 26.6499 13.8866C26.4298 14.1432 26.1371 14.327 25.8103 14.4137C24.6359 14.7275 23.5086 15.1966 22.4582 15.8086C22.1653 15.9793 21.8273 16.0568 21.4892 16.0307C21.1511 16.0047 20.829 15.8763 20.5656 15.6628L17.2113 12.9452L14.584 15.5737L17.2982 18.9314C17.5116 19.1948 17.6397 19.517 17.6656 19.8551C17.6914 20.1931 17.6137 20.5311 17.4429 20.8239C16.8329 21.8759 16.3654 23.0043 16.0524 24.1794C15.9655 24.5059 15.7817 24.7984 15.525 25.0183C15.2684 25.2381 14.9512 25.3749 14.6152 25.4106L10.3223 25.8671V29.5832L14.6152 30.0397C14.9512 30.0754 15.2684 30.2122 15.525 30.4321C15.7817 30.6519 15.9655 30.9444 16.0524 31.271C16.3653 32.4448 16.8325 33.572 17.4418 34.6231C17.6126 34.9159 17.6903 35.2538 17.6644 35.5919C17.6386 35.93 17.5104 36.2522 17.297 36.5156L14.584 39.8677L17.2124 42.4962L20.5712 39.7831C20.8346 39.5695 21.1567 39.4412 21.4948 39.4151C21.8328 39.3891 22.1708 39.4666 22.4638 39.6373C23.5151 40.2479 24.6431 40.7155 25.8181 41.0278C26.1449 41.1144 26.4376 41.2982 26.6577 41.5549C26.8777 41.8115 27.0147 42.1289 27.0505 42.465L27.498 46.7578Z" fill="#70E000"/>
<path d="M29.3584 37.8917C27.3468 37.8915 25.3805 37.2948 23.708 36.177C22.0355 35.0593 20.7321 33.4707 19.9624 31.6122C19.1928 29.7537 18.9915 27.7087 19.3841 25.7358C19.7767 23.7629 20.7455 21.9507 22.1679 20.5284C23.5904 19.1061 25.4027 18.1375 27.3756 17.7452C29.3486 17.3528 31.3936 17.5543 33.252 18.3241C35.1104 19.094 36.6988 20.3976 37.8164 22.0702C38.9339 23.7428 39.5304 25.7092 39.5304 27.7207C39.5275 30.4175 38.4548 33.003 36.5478 34.9098C34.6407 36.8166 32.0552 37.889 29.3584 37.8917ZM29.3584 20.8897C28.0074 20.8899 26.6867 21.2907 25.5635 22.0414C24.4403 22.7922 23.5649 23.8591 23.0481 25.1074C22.5312 26.3556 22.3961 27.7291 22.6598 29.0541C22.9235 30.3791 23.5742 31.5962 24.5296 32.5515C25.485 33.5067 26.7021 34.1572 28.0272 34.4207C29.3523 34.6842 30.7257 34.5488 31.9739 34.0317C33.222 33.5147 34.2888 32.6391 35.0394 31.5158C35.79 30.3924 36.1906 29.0718 36.1906 27.7207C36.1885 25.9095 35.468 24.173 34.1871 22.8923C32.9062 21.6117 31.1696 20.8914 29.3584 20.8897Z" fill="#70E000"/>
</svg>
