<svg width="15" height="17" viewBox="0 0 15 17" fill="none" xmlns="http://www.w3.org/2000/svg">
<path d="M12.7884 4.34396C12.597 4.1752 12.3508 4.09394 12.1035 4.11791C11.8562 4.14187 11.6278 4.2691 11.4681 4.47189L7.5 9.55031L3.53187 4.47198C3.37258 4.26839 3.14399 4.14064 2.89639 4.11683C2.6488 4.09302 2.40247 4.17511 2.21161 4.34502C2.02075 4.51493 1.90099 4.75876 1.87867 5.02286C1.85635 5.28696 1.9333 5.54971 2.09259 5.75329L6.78035 11.7536C6.86829 11.866 6.97834 11.9565 7.10269 12.0186C7.22705 12.0807 7.36268 12.1129 7.5 12.1129C7.63731 12.1129 7.77294 12.0807 7.8973 12.0186C8.02166 11.9565 8.1317 11.866 8.21964 11.7536L12.9074 5.75321C13.0666 5.54942 13.1435 5.28655 13.1212 5.02232C13.0989 4.75809 12.9792 4.51412 12.7884 4.34396Z" fill="black"/>
</svg>
