<svg width="142" height="31" viewBox="0 0 142 31" fill="none" xmlns="http://www.w3.org/2000/svg">
<g clip-path="url(#clip0_41_4385)">
<path d="M28.4167 12.6583C28.4167 12.9166 28.2823 13.1751 28.0137 13.4334L22.3781 18.8584L23.7124 26.7375C23.7228 26.7375 23.7279 26.8668 23.7279 26.9959C23.7279 27.2543 23.6711 27.3833 23.5574 27.5125C23.4541 27.6416 23.2991 27.7709 23.0911 27.7709C22.8948 27.7709 22.6881 27.7709 22.4711 27.6418L15.5 23.8959L8.5294 27.6418C8.30168 27.7709 8.09463 27.7709 7.90837 27.7709C7.69098 27.7709 7.52539 27.6416 7.41159 27.5125C7.308 27.3833 7.25634 27.2543 7.25634 26.9959C7.25634 26.9959 7.26667 26.8667 7.28734 26.7375L8.62253 18.8584L2.97149 13.4334C2.71277 13.1751 2.58334 12.9166 2.58334 12.6583C2.58334 12.2708 2.87319 12.0125 3.45276 12.0125L11.2462 10.8501L14.7392 3.74593C14.9356 3.35843 15.19 3.1001 15.5 3.1001C15.81 3.1001 16.0645 3.35843 16.2608 3.74593L19.7535 10.8501L27.5474 12.0125C28.1273 12.0125 28.4167 12.2708 28.4167 12.6583Z" fill="#E67E22"/>
<path d="M28.4167 11.3666C28.4167 11.6249 28.2823 11.8833 28.0137 12.1417L22.3781 17.5666L23.7124 25.4458C23.7228 25.4458 23.7279 25.575 23.7279 25.7042C23.7279 25.9625 23.6711 26.0916 23.5574 26.2207C23.4541 26.3499 23.2991 26.4792 23.0911 26.4792C22.8948 26.4792 22.6881 26.4792 22.4711 26.35L15.5 22.6042L8.5294 26.35C8.30168 26.4792 8.09463 26.4792 7.90837 26.4792C7.69098 26.4792 7.52539 26.3499 7.41159 26.2207C7.308 26.0916 7.25634 25.9625 7.25634 25.7042C7.25634 25.7042 7.26667 25.5749 7.28734 25.4458L8.62253 17.5666L2.97149 12.1417C2.71277 11.8833 2.58334 11.6249 2.58334 11.3666C2.58334 10.9791 2.87319 10.7207 3.45276 10.7207L11.2462 9.55835L14.7392 2.45418C14.9356 2.06668 15.19 1.80835 15.5 1.80835C15.81 1.80835 16.0645 2.06668 16.2608 2.45418L19.7535 9.55835L27.5474 10.7207C28.1273 10.7207 28.4167 10.9791 28.4167 11.3666Z" fill="#F1C40F"/>
</g>
<g clip-path="url(#clip1_41_4385)">
<path d="M65.4167 12.6583C65.4167 12.9166 65.2823 13.1751 65.0137 13.4334L59.3781 18.8584L60.7124 26.7375C60.7228 26.7375 60.7279 26.8668 60.7279 26.9959C60.7279 27.2543 60.6711 27.3833 60.5574 27.5125C60.4541 27.6416 60.2991 27.7709 60.0911 27.7709C59.8948 27.7709 59.6881 27.7709 59.4711 27.6418L52.5 23.8959L45.5294 27.6418C45.3017 27.7709 45.0946 27.7709 44.9084 27.7709C44.691 27.7709 44.5254 27.6416 44.4116 27.5125C44.308 27.3833 44.2563 27.2543 44.2563 26.9959C44.2563 26.9959 44.2667 26.8667 44.2873 26.7375L45.6225 18.8584L39.9715 13.4334C39.7128 13.1751 39.5833 12.9166 39.5833 12.6583C39.5833 12.2708 39.8732 12.0125 40.4528 12.0125L48.2462 10.8501L51.7392 3.74593C51.9356 3.35843 52.19 3.1001 52.5 3.1001C52.81 3.1001 53.0645 3.35843 53.2608 3.74593L56.7535 10.8501L64.5474 12.0125C65.1273 12.0125 65.4167 12.2708 65.4167 12.6583Z" fill="#E67E22"/>
<path d="M65.4167 11.3666C65.4167 11.6249 65.2823 11.8833 65.0137 12.1417L59.3781 17.5666L60.7124 25.4458C60.7228 25.4458 60.7279 25.575 60.7279 25.7042C60.7279 25.9625 60.6711 26.0916 60.5574 26.2207C60.4541 26.3499 60.2991 26.4792 60.0911 26.4792C59.8948 26.4792 59.6881 26.4792 59.4711 26.35L52.5 22.6042L45.5294 26.35C45.3017 26.4792 45.0946 26.4792 44.9084 26.4792C44.691 26.4792 44.5254 26.3499 44.4116 26.2207C44.308 26.0916 44.2563 25.9625 44.2563 25.7042C44.2563 25.7042 44.2667 25.5749 44.2873 25.4458L45.6225 17.5666L39.9715 12.1417C39.7128 11.8833 39.5833 11.6249 39.5833 11.3666C39.5833 10.9791 39.8732 10.7207 40.4528 10.7207L48.2462 9.55835L51.7392 2.45418C51.9356 2.06668 52.19 1.80835 52.5 1.80835C52.81 1.80835 53.0645 2.06668 53.2608 2.45418L56.7535 9.55835L64.5474 10.7207C65.1273 10.7207 65.4167 10.9791 65.4167 11.3666Z" fill="#F1C40F"/>
</g>
<g clip-path="url(#clip2_41_4385)">
<path d="M102.417 12.6583C102.417 12.9166 102.282 13.1751 102.014 13.4334L96.3781 18.8584L97.7124 26.7375C97.7227 26.7375 97.7279 26.8668 97.7279 26.9959C97.7279 27.2543 97.6711 27.3833 97.5574 27.5125C97.4541 27.6416 97.2991 27.7709 97.0911 27.7709C96.8948 27.7709 96.6881 27.7709 96.4711 27.6418L89.5 23.8959L82.5294 27.6418C82.3017 27.7709 82.0946 27.7709 81.9084 27.7709C81.691 27.7709 81.5254 27.6416 81.4116 27.5125C81.308 27.3833 81.2563 27.2543 81.2563 26.9959C81.2563 26.9959 81.2667 26.8667 81.2873 26.7375L82.6225 18.8584L76.9715 13.4334C76.7128 13.1751 76.5833 12.9166 76.5833 12.6583C76.5833 12.2708 76.8732 12.0125 77.4527 12.0125L85.2462 10.8501L88.7392 3.74593C88.9355 3.35843 89.19 3.1001 89.5 3.1001C89.81 3.1001 90.0645 3.35843 90.2608 3.74593L93.7535 10.8501L101.547 12.0125C102.127 12.0125 102.417 12.2708 102.417 12.6583Z" fill="#E67E22"/>
<path d="M102.417 11.3666C102.417 11.6249 102.282 11.8833 102.014 12.1417L96.3781 17.5666L97.7124 25.4458C97.7227 25.4458 97.7279 25.575 97.7279 25.7042C97.7279 25.9625 97.6711 26.0916 97.5574 26.2207C97.4541 26.3499 97.2991 26.4792 97.0911 26.4792C96.8948 26.4792 96.6881 26.4792 96.4711 26.35L89.5 22.6042L82.5294 26.35C82.3017 26.4792 82.0946 26.4792 81.9084 26.4792C81.691 26.4792 81.5254 26.3499 81.4116 26.2207C81.308 26.0916 81.2563 25.9625 81.2563 25.7042C81.2563 25.7042 81.2667 25.5749 81.2873 25.4458L82.6225 17.5666L76.9715 12.1417C76.7128 11.8833 76.5833 11.6249 76.5833 11.3666C76.5833 10.9791 76.8732 10.7207 77.4527 10.7207L85.2462 9.55835L88.7392 2.45418C88.9355 2.06668 89.19 1.80835 89.5 1.80835C89.81 1.80835 90.0645 2.06668 90.2608 2.45418L93.7535 9.55835L101.547 10.7207C102.127 10.7207 102.417 10.9791 102.417 11.3666Z" fill="#F1C40F"/>
</g>
<g clip-path="url(#clip3_41_4385)">
<path d="M139.417 12.6583C139.417 12.9166 139.282 13.1751 139.014 13.4334L133.378 18.8584L134.712 26.7375C134.723 26.7375 134.728 26.8668 134.728 26.9959C134.728 27.2543 134.671 27.3833 134.557 27.5125C134.454 27.6416 134.299 27.7709 134.091 27.7709C133.895 27.7709 133.688 27.7709 133.471 27.6418L126.5 23.8959L119.529 27.6418C119.302 27.7709 119.095 27.7709 118.908 27.7709C118.691 27.7709 118.525 27.6416 118.412 27.5125C118.308 27.3833 118.256 27.2543 118.256 26.9959C118.256 26.9959 118.267 26.8667 118.287 26.7375L119.623 18.8584L113.971 13.4334C113.713 13.1751 113.583 12.9166 113.583 12.6583C113.583 12.2708 113.873 12.0125 114.453 12.0125L122.246 10.8501L125.739 3.74593C125.936 3.35843 126.19 3.1001 126.5 3.1001C126.81 3.1001 127.064 3.35843 127.261 3.74593L130.753 10.8501L138.547 12.0125C139.127 12.0125 139.417 12.2708 139.417 12.6583Z" fill="#E67E22"/>
<path d="M139.417 11.3666C139.417 11.6249 139.282 11.8833 139.014 12.1417L133.378 17.5666L134.712 25.4458C134.723 25.4458 134.728 25.575 134.728 25.7042C134.728 25.9625 134.671 26.0916 134.557 26.2207C134.454 26.3499 134.299 26.4792 134.091 26.4792C133.895 26.4792 133.688 26.4792 133.471 26.35L126.5 22.6042L119.529 26.35C119.302 26.4792 119.095 26.4792 118.908 26.4792C118.691 26.4792 118.525 26.3499 118.412 26.2207C118.308 26.0916 118.256 25.9625 118.256 25.7042C118.256 25.7042 118.267 25.5749 118.287 25.4458L119.623 17.5666L113.971 12.1417C113.713 11.8833 113.583 11.6249 113.583 11.3666C113.583 10.9791 113.873 10.7207 114.453 10.7207L122.246 9.55835L125.739 2.45418C125.936 2.06668 126.19 1.80835 126.5 1.80835C126.81 1.80835 127.064 2.06668 127.261 2.45418L130.753 9.55835L138.547 10.7207C139.127 10.7207 139.417 10.9791 139.417 11.3666Z" fill="#F1C40F"/>
</g>
<defs>
<clipPath id="clip0_41_4385">
<rect width="31" height="31" fill="white"/>
</clipPath>
<clipPath id="clip1_41_4385">
<rect width="31" height="31" fill="white" transform="translate(37)"/>
</clipPath>
<clipPath id="clip2_41_4385">
<rect width="31" height="31" fill="white" transform="translate(74)"/>
</clipPath>
<clipPath id="clip3_41_4385">
<rect width="31" height="31" fill="white" transform="translate(111)"/>
</clipPath>
</defs>
</svg>
