<svg width="29" height="29" viewBox="0 0 29 29" fill="none" xmlns="http://www.w3.org/2000/svg">
<g clip-path="url(#clip0_32_4160)">
<path d="M27.6405 15.7721C26.2686 15.7753 21.9071 16.2587 21.105 16.3913C20.5986 16.4745 20.0043 16.4764 19.597 16.8167C19.2232 17.129 19.3902 17.7052 19.7414 17.9385C20.118 18.1871 25.2163 18.1428 26.0149 18.144C25.9461 18.2728 24.4967 20.7579 23.7121 21.7843C22.1206 23.8653 19.7853 25.5849 17.2706 26.3702C14.1138 27.3558 10.4285 26.6831 7.69265 24.8673C6.33762 23.9686 5.27227 22.6961 4.38984 21.3468C3.63457 20.1916 2.94621 18.5048 1.82828 17.6737C1.75243 17.6163 1.60935 17.673 1.595 17.7686C1.42037 18.936 2.04562 20.2247 2.50102 21.2716C3.04277 22.5157 3.82227 23.6741 4.71043 24.699C6.58778 26.8657 9.48109 28.1274 12.2753 28.5413C17.1553 29.2654 21.9511 27.041 25.0101 23.2375C25.7055 22.3723 26.3033 21.4363 26.884 20.4911C26.8712 21.9666 26.8585 23.4428 26.8492 24.9179C26.8409 26.1939 28.8235 26.1952 28.8321 24.9179C28.8493 22.2719 28.8709 19.6265 28.8709 16.9805C28.8706 16.2721 28.0369 15.7715 27.6405 15.7721Z" fill="black"/>
<path d="M5.72991 6.59285C7.35391 4.70211 9.58818 3.02075 12.0455 2.41493C15.399 1.58923 19.6066 2.80245 22.0674 5.21551C23.1901 6.31496 24.0519 7.61773 24.8508 8.96033C25.5149 10.0744 26.1523 11.6707 27.1976 12.4687C27.2753 12.5283 27.4136 12.4674 27.4305 12.3744C27.6335 11.236 27.036 9.96418 26.6303 8.92623C26.1472 7.68688 25.447 6.49246 24.6663 5.41659C22.998 3.11858 20.5658 1.62938 17.858 0.830132C12.746 -0.677231 7.78094 1.28999 4.36372 5.22634C3.62183 6.08168 2.97427 7.01605 2.34169 7.95648C2.42327 6.81369 2.50645 5.6709 2.58548 4.52779C2.67407 3.25466 0.691237 3.2604 0.602962 4.52779C0.446171 6.77896 0.118885 11.5056 0.130039 11.6118C0.134182 11.8068 0.129401 12.6637 1.02012 12.6637C2.05041 12.6644 4.4794 12.5713 5.49058 12.5152C6.4087 12.4642 7.34052 12.4582 8.25514 12.3638C8.62417 12.3253 9.44286 12.3387 9.4776 11.9014C9.53337 11.2013 8.23697 10.9422 7.88802 10.9078C6.91253 10.8109 3.68206 10.4996 3.04151 10.4467C3.13329 10.2911 3.22348 10.1395 3.31335 10.004C4.0785 8.84433 4.82326 7.64864 5.72991 6.59285Z" fill="black"/>
</g>
<defs>
<clipPath id="clip0_32_4160">
<rect width="29" height="29" fill="white"/>
</clipPath>
</defs>
</svg>
