<svg width="48" height="48" viewBox="0 0 48 48" fill="none" xmlns="http://www.w3.org/2000/svg">
<path d="M44.7557 12.6753C43.2319 13.3526 41.5921 13.8094 39.8715 14.0139C41.6283 12.9622 42.9753 11.2962 43.6105 9.30892C41.9673 10.2841 40.1483 10.9917 38.2106 11.3737C36.66 9.72119 34.4497 8.68799 32.0038 8.68799C27.3081 8.68799 23.5009 12.4952 23.5009 17.1918C23.5009 17.8573 23.5758 18.506 23.7213 19.1294C16.6538 18.7744 10.3872 15.3895 6.19298 10.2445C5.46098 11.4999 5.04198 12.9605 5.04198 14.5204C5.04198 17.4702 6.54299 20.0735 8.8248 21.598C7.43148 21.5534 6.11978 21.1706 4.97299 20.5337C4.97215 20.569 4.97215 20.6052 4.97215 20.6414C4.97215 24.7608 7.90349 28.1969 11.794 28.9794C11.0805 29.1729 10.3292 29.2772 9.55343 29.2772C9.00485 29.2772 8.47226 29.2242 7.95313 29.1241C9.03598 32.5022 12.176 34.9616 15.8965 35.0297C12.9862 37.3107 9.32037 38.6703 5.33562 38.6703C4.6499 38.6703 3.97259 38.63 3.30707 38.5509C7.07137 40.9648 11.5408 42.3715 16.3425 42.3715C31.9844 42.3715 40.537 29.4144 40.537 18.177C40.537 17.8085 40.5294 17.4408 40.5135 17.0756C42.1743 15.8792 43.6164 14.3807 44.7557 12.6753Z" fill="#6F6F6F"/>
</svg>
